General

Complete name                    : El Greco.mkv
Format                           : Matroska
File size                        : 1.39 GiB
Duration                         : 1h 52mn
Overall bit rate                 : 1 766 Kbps
Writing application              : HandBrake 0.9.4

Video

Format                           : AVC
Duration                         : 1h 52mn
Bit rate                         : 1 283 Kbps
Width                            : 716 pixels
Height                           : 554 pixels
Display aspect ratio             : 16:9
Stream size                      : 1.01 GiB (73%)
Writing library                  : x264 core 79


Audio

Format                           : AC-3
Duration                         : 1h 52mn
Bit rate                         : 448 Kbps
Channel(s)                       : 6 channels
Channel positions                : Front: L C R, Side: L R, LFE
Sampling rate                    : 48.0 KHz
Stream size                      : 361 MiB (25%)
Language                         : English

Text #1
Language                         : Greek

Text #2
Language                         : Swedish

Text #3
Language                         : Hungarian

Text #4
Language                         : Polish

Text #5
Language                         : Romanian

Text #6
Language                         : Serbian

Text #7
Language                         : English

Menu
00:00:00.000                     : Chapter 1
00:04:11.640                     : Chapter 2
00:09:20.280                     : Chapter 3
00:19:47.640                     : Chapter 4
00:30:52.920                     : Chapter 5
00:39:37.560                     : Chapter 6
00:48:10.680                     : Chapter 7
00:58:28.920                     : Chapter 8
01:08:42.360                     : Chapter 9
01:17:26.520                     : Chapter 10
01:26:46.680                     : Chapter 11
01:35:23.160                     : Chapter 12

